<mxfile host="app.diagrams.net" modified="2023-08-01T18:39:20.441Z" agent="Mozilla/5.0 (X11; Linux x86_64; rv:109.0) Gecko/20100101 Firefox/115.0" etag="gecoDpINCyfa3bZdceR4" version="21.5.0" type="device">
  <diagram id="C5RBs43oDa-KdzZeNtuy" name="Page-1">
    <mxGraphModel dx="3129" dy="2446" grid="1" gridSize="10" guides="1" tooltips="1" connect="1" arrows="1" fold="1" page="1" pageScale="1" pageWidth="827" pageHeight="1169" math="0" shadow="0">
      <root>
        <mxCell id="WIyWlLk6GJQsqaUBKTNV-0" />
        <mxCell id="WIyWlLk6GJQsqaUBKTNV-1" parent="WIyWlLk6GJQsqaUBKTNV-0" />
        <mxCell id="KCFnHkIPGcJHUdS3K2ZK-0" value="" style="edgeStyle=orthogonalEdgeStyle;rounded=0;orthogonalLoop=1;jettySize=auto;html=1;" parent="WIyWlLk6GJQsqaUBKTNV-1" source="KCFnHkIPGcJHUdS3K2ZK-10" target="KCFnHkIPGcJHUdS3K2ZK-2" edge="1">
          <mxGeometry relative="1" as="geometry">
            <mxPoint x="200" y="110" as="sourcePoint" />
          </mxGeometry>
        </mxCell>
        <mxCell id="KCFnHkIPGcJHUdS3K2ZK-1" value="" style="edgeStyle=orthogonalEdgeStyle;rounded=0;orthogonalLoop=1;jettySize=auto;html=1;" parent="WIyWlLk6GJQsqaUBKTNV-1" source="KCFnHkIPGcJHUdS3K2ZK-2" edge="1">
          <mxGeometry relative="1" as="geometry">
            <mxPoint x="200" y="200" as="targetPoint" />
          </mxGeometry>
        </mxCell>
        <mxCell id="KCFnHkIPGcJHUdS3K2ZK-2" value="Ввод r" style="shape=parallelogram;perimeter=parallelogramPerimeter;whiteSpace=wrap;html=1;fixedSize=1;" parent="WIyWlLk6GJQsqaUBKTNV-1" vertex="1">
          <mxGeometry x="140" y="120" width="120" height="60" as="geometry" />
        </mxCell>
        <mxCell id="KCFnHkIPGcJHUdS3K2ZK-3" value="" style="edgeStyle=orthogonalEdgeStyle;rounded=0;orthogonalLoop=1;jettySize=auto;html=1;entryX=0.5;entryY=0;entryDx=0;entryDy=0;" parent="WIyWlLk6GJQsqaUBKTNV-1" source="KCFnHkIPGcJHUdS3K2ZK-4" target="KCFnHkIPGcJHUdS3K2ZK-11" edge="1">
          <mxGeometry relative="1" as="geometry">
            <mxPoint x="200" y="360" as="targetPoint" />
          </mxGeometry>
        </mxCell>
        <mxCell id="KCFnHkIPGcJHUdS3K2ZK-4" value="Ввод a" style="shape=parallelogram;perimeter=parallelogramPerimeter;whiteSpace=wrap;html=1;fixedSize=1;" parent="WIyWlLk6GJQsqaUBKTNV-1" vertex="1">
          <mxGeometry x="140" y="290" width="120" height="60" as="geometry" />
        </mxCell>
        <mxCell id="KCFnHkIPGcJHUdS3K2ZK-10" value="Начало" style="ellipse;whiteSpace=wrap;html=1;rounded=0;" parent="WIyWlLk6GJQsqaUBKTNV-1" vertex="1">
          <mxGeometry x="140" y="-60" width="120" height="60" as="geometry" />
        </mxCell>
        <mxCell id="KCFnHkIPGcJHUdS3K2ZK-13" value="" style="edgeStyle=orthogonalEdgeStyle;rounded=0;orthogonalLoop=1;jettySize=auto;html=1;" parent="WIyWlLk6GJQsqaUBKTNV-1" source="KCFnHkIPGcJHUdS3K2ZK-11" edge="1">
          <mxGeometry relative="1" as="geometry">
            <mxPoint x="198" y="480" as="targetPoint" />
          </mxGeometry>
        </mxCell>
        <mxCell id="KCFnHkIPGcJHUdS3K2ZK-11" value="Ввод b" style="shape=parallelogram;perimeter=parallelogramPerimeter;whiteSpace=wrap;html=1;fixedSize=1;" parent="WIyWlLk6GJQsqaUBKTNV-1" vertex="1">
          <mxGeometry x="137.5" y="380" width="120" height="60" as="geometry" />
        </mxCell>
        <mxCell id="KCFnHkIPGcJHUdS3K2ZK-15" value="" style="edgeStyle=orthogonalEdgeStyle;rounded=0;orthogonalLoop=1;jettySize=auto;html=1;exitX=0.5;exitY=1;exitDx=0;exitDy=0;" parent="WIyWlLk6GJQsqaUBKTNV-1" source="fcF7zMCeUYL5iNp2zYGC-15" target="KCFnHkIPGcJHUdS3K2ZK-14" edge="1">
          <mxGeometry relative="1" as="geometry">
            <mxPoint x="197.5" y="820" as="sourcePoint" />
          </mxGeometry>
        </mxCell>
        <mxCell id="fcF7zMCeUYL5iNp2zYGC-17" style="edgeStyle=orthogonalEdgeStyle;rounded=0;orthogonalLoop=1;jettySize=auto;html=1;exitX=0.5;exitY=1;exitDx=0;exitDy=0;fontSize=10;" parent="WIyWlLk6GJQsqaUBKTNV-1" source="KCFnHkIPGcJHUdS3K2ZK-12" target="fcF7zMCeUYL5iNp2zYGC-15" edge="1">
          <mxGeometry relative="1" as="geometry" />
        </mxCell>
        <mxCell id="KCFnHkIPGcJHUdS3K2ZK-12" value="Ввод eps" style="shape=parallelogram;perimeter=parallelogramPerimeter;whiteSpace=wrap;html=1;fixedSize=1;" parent="WIyWlLk6GJQsqaUBKTNV-1" vertex="1">
          <mxGeometry x="137.5" y="660" width="120" height="60" as="geometry" />
        </mxCell>
        <mxCell id="KCFnHkIPGcJHUdS3K2ZK-17" value="" style="edgeStyle=orthogonalEdgeStyle;rounded=0;orthogonalLoop=1;jettySize=auto;html=1;" parent="WIyWlLk6GJQsqaUBKTNV-1" source="KCFnHkIPGcJHUdS3K2ZK-14" edge="1">
          <mxGeometry relative="1" as="geometry">
            <mxPoint x="200" y="930" as="targetPoint" />
          </mxGeometry>
        </mxCell>
        <mxCell id="KCFnHkIPGcJHUdS3K2ZK-14" value="Ввод x" style="shape=parallelogram;perimeter=parallelogramPerimeter;whiteSpace=wrap;html=1;fixedSize=1;" parent="WIyWlLk6GJQsqaUBKTNV-1" vertex="1">
          <mxGeometry x="140" y="840" width="120" height="60" as="geometry" />
        </mxCell>
        <mxCell id="fcF7zMCeUYL5iNp2zYGC-6" style="edgeStyle=orthogonalEdgeStyle;rounded=0;orthogonalLoop=1;jettySize=auto;html=1;exitX=0.5;exitY=1;exitDx=0;exitDy=0;entryX=0.5;entryY=0;entryDx=0;entryDy=0;" parent="WIyWlLk6GJQsqaUBKTNV-1" source="fcF7zMCeUYL5iNp2zYGC-2" target="KCFnHkIPGcJHUdS3K2ZK-4" edge="1">
          <mxGeometry relative="1" as="geometry" />
        </mxCell>
        <mxCell id="fcF7zMCeUYL5iNp2zYGC-37" style="edgeStyle=orthogonalEdgeStyle;rounded=0;orthogonalLoop=1;jettySize=auto;html=1;exitX=1;exitY=0.5;exitDx=0;exitDy=0;fontSize=9;" parent="WIyWlLk6GJQsqaUBKTNV-1" source="fcF7zMCeUYL5iNp2zYGC-2" target="fcF7zMCeUYL5iNp2zYGC-36" edge="1">
          <mxGeometry relative="1" as="geometry" />
        </mxCell>
        <mxCell id="fcF7zMCeUYL5iNp2zYGC-2" value="r&amp;lt;=0?" style="rhombus;whiteSpace=wrap;html=1;" parent="WIyWlLk6GJQsqaUBKTNV-1" vertex="1">
          <mxGeometry x="137.5" y="200" width="125" height="70" as="geometry" />
        </mxCell>
        <mxCell id="fcF7zMCeUYL5iNp2zYGC-7" value="да" style="text;html=1;strokeColor=none;fillColor=none;align=center;verticalAlign=middle;whiteSpace=wrap;rounded=0;" parent="WIyWlLk6GJQsqaUBKTNV-1" vertex="1">
          <mxGeometry x="80" y="500" width="60" height="30" as="geometry" />
        </mxCell>
        <mxCell id="fcF7zMCeUYL5iNp2zYGC-8" value="нет" style="text;html=1;strokeColor=none;fillColor=none;align=center;verticalAlign=middle;whiteSpace=wrap;rounded=0;" parent="WIyWlLk6GJQsqaUBKTNV-1" vertex="1">
          <mxGeometry x="202.5" y="260" width="60" height="30" as="geometry" />
        </mxCell>
        <mxCell id="fcF7zMCeUYL5iNp2zYGC-12" style="edgeStyle=orthogonalEdgeStyle;rounded=0;orthogonalLoop=1;jettySize=auto;html=1;exitX=0.5;exitY=1;exitDx=0;exitDy=0;fontSize=10;" parent="WIyWlLk6GJQsqaUBKTNV-1" source="fcF7zMCeUYL5iNp2zYGC-9" target="KCFnHkIPGcJHUdS3K2ZK-12" edge="1">
          <mxGeometry relative="1" as="geometry" />
        </mxCell>
        <mxCell id="fcF7zMCeUYL5iNp2zYGC-42" style="edgeStyle=orthogonalEdgeStyle;rounded=0;orthogonalLoop=1;jettySize=auto;html=1;exitX=0;exitY=0.5;exitDx=0;exitDy=0;entryX=0.5;entryY=0;entryDx=0;entryDy=0;fontSize=9;" parent="WIyWlLk6GJQsqaUBKTNV-1" source="fcF7zMCeUYL5iNp2zYGC-9" target="fcF7zMCeUYL5iNp2zYGC-41" edge="1">
          <mxGeometry relative="1" as="geometry" />
        </mxCell>
        <mxCell id="fcF7zMCeUYL5iNp2zYGC-9" value="&lt;font style=&quot;font-size: 10px;&quot;&gt;(pow(2 * b * a, 2) - 4 * (1 + a * a) * (pow(b, 2) - pow(r, 2))) &amp;lt; 0?&lt;/font&gt;" style="rhombus;whiteSpace=wrap;html=1;" parent="WIyWlLk6GJQsqaUBKTNV-1" vertex="1">
          <mxGeometry x="110" y="480" width="175" height="120" as="geometry" />
        </mxCell>
        <mxCell id="fcF7zMCeUYL5iNp2zYGC-13" value="нет" style="text;html=1;strokeColor=none;fillColor=none;align=center;verticalAlign=middle;whiteSpace=wrap;rounded=0;" parent="WIyWlLk6GJQsqaUBKTNV-1" vertex="1">
          <mxGeometry x="200" y="620" width="60" height="30" as="geometry" />
        </mxCell>
        <mxCell id="fcF7zMCeUYL5iNp2zYGC-14" value="да" style="text;html=1;strokeColor=none;fillColor=none;align=center;verticalAlign=middle;whiteSpace=wrap;rounded=0;" parent="WIyWlLk6GJQsqaUBKTNV-1" vertex="1">
          <mxGeometry x="240" y="190" width="60" height="30" as="geometry" />
        </mxCell>
        <mxCell id="fcF7zMCeUYL5iNp2zYGC-16" style="edgeStyle=orthogonalEdgeStyle;rounded=0;orthogonalLoop=1;jettySize=auto;html=1;exitX=0;exitY=0.5;exitDx=0;exitDy=0;entryX=0.5;entryY=0;entryDx=0;entryDy=0;fontSize=10;" parent="WIyWlLk6GJQsqaUBKTNV-1" source="fcF7zMCeUYL5iNp2zYGC-15" target="fcF7zMCeUYL5iNp2zYGC-46" edge="1">
          <mxGeometry relative="1" as="geometry">
            <Array as="points">
              <mxPoint x="135" y="765" />
              <mxPoint x="90" y="765" />
            </Array>
          </mxGeometry>
        </mxCell>
        <mxCell id="fcF7zMCeUYL5iNp2zYGC-15" value="eps&amp;lt;=0 || eps&amp;gt;=1?" style="rhombus;whiteSpace=wrap;html=1;" parent="WIyWlLk6GJQsqaUBKTNV-1" vertex="1">
          <mxGeometry x="135" y="740" width="125" height="70" as="geometry" />
        </mxCell>
        <mxCell id="fcF7zMCeUYL5iNp2zYGC-18" value="нет" style="text;html=1;strokeColor=none;fillColor=none;align=center;verticalAlign=middle;whiteSpace=wrap;rounded=0;" parent="WIyWlLk6GJQsqaUBKTNV-1" vertex="1">
          <mxGeometry x="202.5" y="810" width="60" height="30" as="geometry" />
        </mxCell>
        <mxCell id="fcF7zMCeUYL5iNp2zYGC-19" value="да" style="text;html=1;strokeColor=none;fillColor=none;align=center;verticalAlign=middle;whiteSpace=wrap;rounded=0;" parent="WIyWlLk6GJQsqaUBKTNV-1" vertex="1">
          <mxGeometry x="110" y="730" width="60" height="30" as="geometry" />
        </mxCell>
        <mxCell id="fcF7zMCeUYL5iNp2zYGC-22" style="edgeStyle=orthogonalEdgeStyle;rounded=0;orthogonalLoop=1;jettySize=auto;html=1;exitX=0.5;exitY=1;exitDx=0;exitDy=0;entryX=0.5;entryY=0;entryDx=0;entryDy=0;fontSize=10;" parent="WIyWlLk6GJQsqaUBKTNV-1" source="fcF7zMCeUYL5iNp2zYGC-20" edge="1">
          <mxGeometry relative="1" as="geometry">
            <mxPoint x="195" y="1040" as="targetPoint" />
          </mxGeometry>
        </mxCell>
        <mxCell id="fcF7zMCeUYL5iNp2zYGC-20" value="Ввод y" style="shape=parallelogram;perimeter=parallelogramPerimeter;whiteSpace=wrap;html=1;fixedSize=1;" parent="WIyWlLk6GJQsqaUBKTNV-1" vertex="1">
          <mxGeometry x="135" y="930" width="120" height="60" as="geometry" />
        </mxCell>
        <mxCell id="fcF7zMCeUYL5iNp2zYGC-25" style="edgeStyle=orthogonalEdgeStyle;rounded=0;orthogonalLoop=1;jettySize=auto;html=1;exitX=0.5;exitY=1;exitDx=0;exitDy=0;fontSize=10;" parent="WIyWlLk6GJQsqaUBKTNV-1" target="fcF7zMCeUYL5iNp2zYGC-24" edge="1">
          <mxGeometry relative="1" as="geometry">
            <mxPoint x="570" y="40" as="sourcePoint" />
          </mxGeometry>
        </mxCell>
        <mxCell id="fcF7zMCeUYL5iNp2zYGC-27" style="edgeStyle=orthogonalEdgeStyle;rounded=0;orthogonalLoop=1;jettySize=auto;html=1;fontSize=10;" parent="WIyWlLk6GJQsqaUBKTNV-1" target="fcF7zMCeUYL5iNp2zYGC-26" edge="1">
          <mxGeometry relative="1" as="geometry">
            <mxPoint x="480" y="150" as="sourcePoint" />
            <Array as="points">
              <mxPoint x="414" y="150" />
            </Array>
          </mxGeometry>
        </mxCell>
        <mxCell id="fcF7zMCeUYL5iNp2zYGC-30" style="edgeStyle=orthogonalEdgeStyle;rounded=0;orthogonalLoop=1;jettySize=auto;html=1;exitX=0.5;exitY=1;exitDx=0;exitDy=0;fontSize=10;" parent="WIyWlLk6GJQsqaUBKTNV-1" source="fcF7zMCeUYL5iNp2zYGC-24" target="fcF7zMCeUYL5iNp2zYGC-29" edge="1">
          <mxGeometry relative="1" as="geometry" />
        </mxCell>
        <mxCell id="fcF7zMCeUYL5iNp2zYGC-24" value="&lt;font style=&quot;font-size: 10px;&quot;&gt;((pow(x, 2) + pow(y, 2)) &amp;lt; pow(r, 2)) &amp;amp;&amp;amp; (a * x + b &amp;gt; y) &amp;amp;&amp;amp; (y &amp;lt; 0) ?&lt;/font&gt;" style="rhombus;whiteSpace=wrap;html=1;" parent="WIyWlLk6GJQsqaUBKTNV-1" vertex="1">
          <mxGeometry x="482.5" y="90" width="175" height="120" as="geometry" />
        </mxCell>
        <mxCell id="fcF7zMCeUYL5iNp2zYGC-55" style="edgeStyle=orthogonalEdgeStyle;rounded=0;orthogonalLoop=1;jettySize=auto;html=1;exitX=0.5;exitY=1;exitDx=0;exitDy=0;fontSize=9;" parent="WIyWlLk6GJQsqaUBKTNV-1" source="fcF7zMCeUYL5iNp2zYGC-26" target="fcF7zMCeUYL5iNp2zYGC-53" edge="1">
          <mxGeometry relative="1" as="geometry">
            <Array as="points">
              <mxPoint x="414" y="490" />
              <mxPoint x="570" y="490" />
            </Array>
          </mxGeometry>
        </mxCell>
        <mxCell id="fcF7zMCeUYL5iNp2zYGC-26" value="Вывод &quot;&lt;font style=&quot;font-size: 11px;&quot;&gt;Точка входит в область&quot;&lt;/font&gt;" style="shape=parallelogram;perimeter=parallelogramPerimeter;whiteSpace=wrap;html=1;fixedSize=1;" parent="WIyWlLk6GJQsqaUBKTNV-1" vertex="1">
          <mxGeometry x="354" y="245" width="120" height="60" as="geometry" />
        </mxCell>
        <mxCell id="fcF7zMCeUYL5iNp2zYGC-28" value="да" style="text;html=1;strokeColor=none;fillColor=none;align=center;verticalAlign=middle;whiteSpace=wrap;rounded=0;" parent="WIyWlLk6GJQsqaUBKTNV-1" vertex="1">
          <mxGeometry x="422.5" y="120" width="60" height="30" as="geometry" />
        </mxCell>
        <mxCell id="fcF7zMCeUYL5iNp2zYGC-33" style="edgeStyle=orthogonalEdgeStyle;rounded=0;orthogonalLoop=1;jettySize=auto;html=1;exitX=0.5;exitY=1;exitDx=0;exitDy=0;entryX=0.5;entryY=0;entryDx=0;entryDy=0;fontSize=9;" parent="WIyWlLk6GJQsqaUBKTNV-1" source="fcF7zMCeUYL5iNp2zYGC-29" target="fcF7zMCeUYL5iNp2zYGC-32" edge="1">
          <mxGeometry relative="1" as="geometry" />
        </mxCell>
        <mxCell id="fcF7zMCeUYL5iNp2zYGC-35" style="edgeStyle=orthogonalEdgeStyle;rounded=0;orthogonalLoop=1;jettySize=auto;html=1;exitX=1;exitY=0.5;exitDx=0;exitDy=0;fontSize=9;" parent="WIyWlLk6GJQsqaUBKTNV-1" source="fcF7zMCeUYL5iNp2zYGC-29" target="fcF7zMCeUYL5iNp2zYGC-34" edge="1">
          <mxGeometry relative="1" as="geometry" />
        </mxCell>
        <mxCell id="fcF7zMCeUYL5iNp2zYGC-29" value="&lt;font style=&quot;font-size: 9px;&quot;&gt;(abs((pow(x, 2) + pow(y, 2)) - (pow(r, 2))) &amp;lt;= eps) || ((abs((abs(a * x + b) - abs(y))) &amp;lt;= eps) || (abs(y) &amp;lt;= eps))?&lt;/font&gt;" style="rhombus;whiteSpace=wrap;html=1;fontSize=10;" parent="WIyWlLk6GJQsqaUBKTNV-1" vertex="1">
          <mxGeometry x="482" y="220" width="175" height="120" as="geometry" />
        </mxCell>
        <mxCell id="fcF7zMCeUYL5iNp2zYGC-31" value="нет" style="text;html=1;strokeColor=none;fillColor=none;align=center;verticalAlign=middle;whiteSpace=wrap;rounded=0;" parent="WIyWlLk6GJQsqaUBKTNV-1" vertex="1">
          <mxGeometry x="590" y="200" width="60" height="30" as="geometry" />
        </mxCell>
        <mxCell id="fcF7zMCeUYL5iNp2zYGC-58" style="edgeStyle=orthogonalEdgeStyle;rounded=0;orthogonalLoop=1;jettySize=auto;html=1;exitX=0.5;exitY=1;exitDx=0;exitDy=0;entryX=0.5;entryY=0;entryDx=0;entryDy=0;fontSize=9;" parent="WIyWlLk6GJQsqaUBKTNV-1" source="fcF7zMCeUYL5iNp2zYGC-32" target="fcF7zMCeUYL5iNp2zYGC-53" edge="1">
          <mxGeometry relative="1" as="geometry" />
        </mxCell>
        <mxCell id="fcF7zMCeUYL5iNp2zYGC-32" value="Вывод &quot;&lt;font style=&quot;font-size: 11px;&quot;&gt;Точка лежит на границе области&quot;&lt;/font&gt;" style="shape=parallelogram;perimeter=parallelogramPerimeter;whiteSpace=wrap;html=1;fixedSize=1;" parent="WIyWlLk6GJQsqaUBKTNV-1" vertex="1">
          <mxGeometry x="510" y="380" width="120" height="60" as="geometry" />
        </mxCell>
        <mxCell id="fcF7zMCeUYL5iNp2zYGC-61" style="edgeStyle=orthogonalEdgeStyle;rounded=0;orthogonalLoop=1;jettySize=auto;html=1;exitX=0.5;exitY=1;exitDx=0;exitDy=0;entryX=0.5;entryY=0;entryDx=0;entryDy=0;fontSize=9;" parent="WIyWlLk6GJQsqaUBKTNV-1" source="fcF7zMCeUYL5iNp2zYGC-34" target="fcF7zMCeUYL5iNp2zYGC-53" edge="1">
          <mxGeometry relative="1" as="geometry" />
        </mxCell>
        <mxCell id="fcF7zMCeUYL5iNp2zYGC-34" value="Вывод &quot;&lt;font style=&quot;font-size: 11px;&quot;&gt;Точка не входит в область&quot;&lt;/font&gt;" style="shape=parallelogram;perimeter=parallelogramPerimeter;whiteSpace=wrap;html=1;fixedSize=1;" parent="WIyWlLk6GJQsqaUBKTNV-1" vertex="1">
          <mxGeometry x="670" y="380" width="120" height="60" as="geometry" />
        </mxCell>
        <mxCell id="fcF7zMCeUYL5iNp2zYGC-39" style="edgeStyle=orthogonalEdgeStyle;rounded=0;orthogonalLoop=1;jettySize=auto;html=1;exitX=0.5;exitY=1;exitDx=0;exitDy=0;fontSize=9;entryX=0.333;entryY=0;entryDx=0;entryDy=0;entryPerimeter=0;" parent="WIyWlLk6GJQsqaUBKTNV-1" source="fcF7zMCeUYL5iNp2zYGC-36" edge="1">
          <mxGeometry relative="1" as="geometry">
            <mxPoint x="299.9899999999998" y="1040" as="targetPoint" />
          </mxGeometry>
        </mxCell>
        <mxCell id="fcF7zMCeUYL5iNp2zYGC-36" value="Вывод &quot;&lt;font style=&quot;font-size: 11px;&quot;&gt;Ошибка! Введите положительный радиус&quot;&lt;/font&gt;" style="shape=parallelogram;perimeter=parallelogramPerimeter;whiteSpace=wrap;html=1;fixedSize=1;" parent="WIyWlLk6GJQsqaUBKTNV-1" vertex="1">
          <mxGeometry x="262.5" y="320" width="120" height="60" as="geometry" />
        </mxCell>
        <mxCell id="fcF7zMCeUYL5iNp2zYGC-45" style="edgeStyle=orthogonalEdgeStyle;rounded=0;orthogonalLoop=1;jettySize=auto;html=1;exitX=0.5;exitY=1;exitDx=0;exitDy=0;entryX=0.5;entryY=0;entryDx=0;entryDy=0;fontSize=9;" parent="WIyWlLk6GJQsqaUBKTNV-1" source="fcF7zMCeUYL5iNp2zYGC-41" edge="1">
          <mxGeometry relative="1" as="geometry">
            <mxPoint x="20" y="1040" as="targetPoint" />
          </mxGeometry>
        </mxCell>
        <mxCell id="fcF7zMCeUYL5iNp2zYGC-41" value="&lt;font style=&quot;font-size: 11px;&quot;&gt;Вывод &quot;Прямая &lt;br&gt;не пересекает окружность&quot;&lt;/font&gt;" style="shape=parallelogram;perimeter=parallelogramPerimeter;whiteSpace=wrap;html=1;fixedSize=1;" parent="WIyWlLk6GJQsqaUBKTNV-1" vertex="1">
          <mxGeometry x="-40" y="600" width="120" height="60" as="geometry" />
        </mxCell>
        <mxCell id="fcF7zMCeUYL5iNp2zYGC-48" style="edgeStyle=orthogonalEdgeStyle;rounded=0;orthogonalLoop=1;jettySize=auto;html=1;exitX=0.5;exitY=1;exitDx=0;exitDy=0;entryX=0.5;entryY=0;entryDx=0;entryDy=0;fontSize=9;" parent="WIyWlLk6GJQsqaUBKTNV-1" source="fcF7zMCeUYL5iNp2zYGC-46" edge="1">
          <mxGeometry relative="1" as="geometry">
            <mxPoint x="95" y="1040" as="targetPoint" />
          </mxGeometry>
        </mxCell>
        <mxCell id="fcF7zMCeUYL5iNp2zYGC-46" value="Вывод &quot;&lt;span style=&quot;font-size: 11px;&quot;&gt;Ошибка! &lt;br&gt;Неверно введена погрешность, требуется от 0 до 1&lt;/span&gt;&quot;" style="shape=parallelogram;perimeter=parallelogramPerimeter;whiteSpace=wrap;html=1;fixedSize=1;" parent="WIyWlLk6GJQsqaUBKTNV-1" vertex="1">
          <mxGeometry x="30" y="820" width="120" height="60" as="geometry" />
        </mxCell>
        <mxCell id="fcF7zMCeUYL5iNp2zYGC-64" style="edgeStyle=orthogonalEdgeStyle;rounded=0;orthogonalLoop=1;jettySize=auto;html=1;exitX=0.5;exitY=1;exitDx=0;exitDy=0;entryX=1;entryY=0.5;entryDx=0;entryDy=0;fontSize=9;" parent="WIyWlLk6GJQsqaUBKTNV-1" target="fcF7zMCeUYL5iNp2zYGC-53" edge="1">
          <mxGeometry relative="1" as="geometry">
            <Array as="points">
              <mxPoint x="810" y="40" />
              <mxPoint x="810" y="555" />
            </Array>
            <mxPoint x="680" y="40" as="sourcePoint" />
          </mxGeometry>
        </mxCell>
        <mxCell id="fcF7zMCeUYL5iNp2zYGC-54" style="edgeStyle=orthogonalEdgeStyle;rounded=0;orthogonalLoop=1;jettySize=auto;html=1;entryX=0;entryY=0.5;entryDx=0;entryDy=0;fontSize=9;exitX=0.5;exitY=1;exitDx=0;exitDy=0;" parent="WIyWlLk6GJQsqaUBKTNV-1" source="G3uHv2zJVsSQ--aBd3RB-8" target="fcF7zMCeUYL5iNp2zYGC-53" edge="1">
          <mxGeometry relative="1" as="geometry">
            <mxPoint x="280" y="50" as="sourcePoint" />
          </mxGeometry>
        </mxCell>
        <mxCell id="fcF7zMCeUYL5iNp2zYGC-63" style="edgeStyle=orthogonalEdgeStyle;rounded=0;orthogonalLoop=1;jettySize=auto;html=1;exitX=0.5;exitY=1;exitDx=0;exitDy=0;fontSize=9;" parent="WIyWlLk6GJQsqaUBKTNV-1" source="G3uHv2zJVsSQ--aBd3RB-9" edge="1">
          <mxGeometry relative="1" as="geometry">
            <mxPoint x="400" y="70" as="targetPoint" />
            <Array as="points">
              <mxPoint x="470" y="40" />
              <mxPoint x="470" y="75" />
              <mxPoint x="435" y="75" />
              <mxPoint x="435" y="70" />
            </Array>
            <mxPoint x="470" y="40" as="sourcePoint" />
          </mxGeometry>
        </mxCell>
        <mxCell id="fcF7zMCeUYL5iNp2zYGC-53" value="Конец" style="ellipse;whiteSpace=wrap;html=1;rounded=0;" parent="WIyWlLk6GJQsqaUBKTNV-1" vertex="1">
          <mxGeometry x="510" y="525" width="120" height="60" as="geometry" />
        </mxCell>
        <mxCell id="G3uHv2zJVsSQ--aBd3RB-0" value="&lt;p class=&quot;docData;DOCY;v5;1298;BQiAAgAAEYQCAAAGiAIAAAN5BAAABYcEAAAAAAAAAAAAAAAAAAAAAAAAAAAAAAAAAAAAAAAAAAAAAAAAAAAAAAAAAAAAAAAAAAAAAAAAAAAAAAAAAAAAAAAAAAAAAAAAAAAAAAAAAAAAAAAAAAAAAAAAAAAAAAAAAAAAAAAAAAAAAAAAAAAAAAAAAAAAAAAAAAAAAAAAAAAAAAAAAAAAAAAAAAAAAAAAAAAAAAAAAAAAAAAAAAAAAAAAAAAAAAAAAAAAAAAAAAAAAAAAAAAAAAAAAAAAAAAAAAAAAAAAAAAAAAAAAAAAAAAAAAAAAAAAAAAAAAAAAAAAAAAAAAAAAAAAAAAAAAAAAAAAAAAAAAAAAAAAAAAAAAAAAAAAAAAAAAAAAAAAAAAAAAAAAAAAAAAAAAAAAAAAAAAAAAAAAAAAAAAAAAAAAAAAAAAAAAAAAAAAAAAAAAAAAAAAAAAAAAAAAAAAAAAAAAAAAAAAAAAAAAAAAAAAAAAAAAAAAAAAAAAAAAAAAAAAAAAAAAAAAAAAAAAAAAAAAAAAAAAAAAAAAAAAAAAAAAAAAAAAAAAAAAAAAAAAAAAAAAAAAAAAAAAAAAAAAAAAAAAAAAAAAAAAAAAAAAAAAAAAAAAAAAAAAAAAAAAAAAAAAAAAAAAAAAAAAAAAAAAAAAAAAAAAAAAAAAAAAAAAAAAAAAAAAAAAAAAAAAAAAAAAAAAAAAAAAAAAAAAAAAAAAAAAAAAAAAAAAAAAAAAAAAAAAAAAAAAAAAAAAAAAAAAAAAAAAAAAAAAAAAAAAAAAAAAAAAAAAAAAAAAAAAAAAAAAAAAAAAAAAAAAAAAAAAAAAAAAAAAAAAAAAAAAAAAA7QEAAADoAQAAAbAAAAABBgwAAAAkBAAAAAAmBAAAAAAFAQEJBgkAAAAnBPAAAAALAQEaBhwAAAAIBAoAAAAWBAoAAAAZBgoAAABlAG4ALQBVAFMAGwZkAAAAABQAAAAAAwAAAAUEAAAAAAYEBAAAAAMBAAEUAAAAAAMAAAAFBAAAAAAGBAQAAAADAQACFAAAAAADAAAABQQAAAAABgQEAAAAAwEAAxQAAAAAAwAAAAUEAAAAAAYEBAAAAAMBAAIuAQAABTcAAAABHAAAAAgECgAAABYECgAAABkGCgAAAGUAbgAtAFUAUwAIEQAAAAAMAAAAZABvAHUAYgBsAGUABUsAAAABHAAAAAgECgAAABYECgAAABkGCgAAAGUAbgAtAFUAUwAIJQAAAAAgAAAAIAB4ACwAIAB5ACwAIAByACwAIABhACwAIABiACwAIAAFMQAAAAEcAAAACAQKAAAAFgQKAAAAGQYKAAAAZQBuAC0AVQBTAAgLAAAAAAYAAABlAHAAcwAFLQAAAAEcAAAACAQKAAAAFgQKAAAAGQYKAAAAZQBuAC0AVQBTAAgHAAAAAAIAAAA7AAUKAAAAAQAAAAAIAAAAAAUmAAAAARwAAAAIBAoAAAAWBAoAAAAZBgoAAABlAG4ALQBVAFMACAAAAAAKAAAAAAAAAAARAAAAAIcAAAAALQAAAAEGAAAAAAkGGwAAACcEAwEAAAsBARwBACgEAAAAAB0BACkEoAAAABsGAAAAAAFLAAAAKAEHKQEHKgEHKwEFEwEBCAQWAAAAFgQWAAAAGQYKAAAAcgB1AC0AUgBVABoGCgAAAGEAcgAtAFMAQQAbBgoAAABlAG4ALQBVAFMAAgAAAAA=&quot; style=&quot;line-height: 120%; margin-top: 0pt; margin-bottom: 0pt; border: none;&quot;&gt;&lt;font style=&quot;font-size: 12px;&quot;&gt;double&lt;/font&gt;&lt;span style=&quot;&quot;&gt; x, y, r, a, b, &lt;/span&gt;&lt;span style=&quot;&quot;&gt;eps&lt;/span&gt;&lt;span style=&quot;&quot;&gt;;&lt;/span&gt;&lt;/p&gt;" style="rounded=0;whiteSpace=wrap;html=1;" parent="WIyWlLk6GJQsqaUBKTNV-1" vertex="1">
          <mxGeometry x="142.5" y="30" width="120" height="60" as="geometry" />
        </mxCell>
        <mxCell id="G3uHv2zJVsSQ--aBd3RB-1" value="нет" style="text;html=1;strokeColor=none;fillColor=none;align=center;verticalAlign=middle;whiteSpace=wrap;rounded=0;" parent="WIyWlLk6GJQsqaUBKTNV-1" vertex="1">
          <mxGeometry x="650" y="250" width="60" height="30" as="geometry" />
        </mxCell>
        <mxCell id="G3uHv2zJVsSQ--aBd3RB-2" value="да" style="text;html=1;strokeColor=none;fillColor=none;align=center;verticalAlign=middle;whiteSpace=wrap;rounded=0;" parent="WIyWlLk6GJQsqaUBKTNV-1" vertex="1">
          <mxGeometry x="570" y="335" width="60" height="30" as="geometry" />
        </mxCell>
        <mxCell id="G3uHv2zJVsSQ--aBd3RB-3" value="&lt;span style=&quot;font-size: 10px;&quot;&gt;A&lt;/span&gt;" style="shape=offPageConnector;whiteSpace=wrap;html=1;fontFamily=Helvetica;fontSize=12;" parent="WIyWlLk6GJQsqaUBKTNV-1" vertex="1">
          <mxGeometry x="180" y="1040" width="30" height="30" as="geometry" />
        </mxCell>
        <mxCell id="G3uHv2zJVsSQ--aBd3RB-4" value="&lt;span style=&quot;font-size: 10px;&quot;&gt;B&lt;/span&gt;" style="shape=offPageConnector;whiteSpace=wrap;html=1;fontFamily=Helvetica;fontSize=12;" parent="WIyWlLk6GJQsqaUBKTNV-1" vertex="1">
          <mxGeometry x="285" y="1040" width="30" height="30" as="geometry" />
        </mxCell>
        <mxCell id="G3uHv2zJVsSQ--aBd3RB-5" value="&lt;span style=&quot;font-size: 10px;&quot;&gt;D&lt;/span&gt;" style="shape=offPageConnector;whiteSpace=wrap;html=1;fontFamily=Helvetica;fontSize=12;" parent="WIyWlLk6GJQsqaUBKTNV-1" vertex="1">
          <mxGeometry x="80" y="1040" width="30" height="30" as="geometry" />
        </mxCell>
        <mxCell id="G3uHv2zJVsSQ--aBd3RB-6" value="&lt;span style=&quot;font-size: 10px;&quot;&gt;C&lt;/span&gt;" style="shape=offPageConnector;whiteSpace=wrap;html=1;fontFamily=Helvetica;fontSize=12;" parent="WIyWlLk6GJQsqaUBKTNV-1" vertex="1">
          <mxGeometry x="5" y="1040" width="30" height="30" as="geometry" />
        </mxCell>
        <mxCell id="G3uHv2zJVsSQ--aBd3RB-8" value="&lt;span style=&quot;font-size: 10px;&quot;&gt;C&lt;/span&gt;" style="shape=offPageConnector;whiteSpace=wrap;html=1;fontFamily=Helvetica;fontSize=12;" parent="WIyWlLk6GJQsqaUBKTNV-1" vertex="1">
          <mxGeometry x="380" y="10" width="30" height="30" as="geometry" />
        </mxCell>
        <mxCell id="G3uHv2zJVsSQ--aBd3RB-9" value="&lt;span style=&quot;font-size: 10px;&quot;&gt;D&lt;/span&gt;" style="shape=offPageConnector;whiteSpace=wrap;html=1;fontFamily=Helvetica;fontSize=12;" parent="WIyWlLk6GJQsqaUBKTNV-1" vertex="1">
          <mxGeometry x="452.5" y="10" width="30" height="30" as="geometry" />
        </mxCell>
        <mxCell id="G3uHv2zJVsSQ--aBd3RB-10" value="&lt;span style=&quot;font-size: 10px;&quot;&gt;А&lt;/span&gt;" style="shape=offPageConnector;whiteSpace=wrap;html=1;fontFamily=Helvetica;fontSize=12;" parent="WIyWlLk6GJQsqaUBKTNV-1" vertex="1">
          <mxGeometry x="555" y="10" width="30" height="30" as="geometry" />
        </mxCell>
        <mxCell id="G3uHv2zJVsSQ--aBd3RB-11" value="&lt;span style=&quot;font-size: 10px;&quot;&gt;B&lt;/span&gt;" style="shape=offPageConnector;whiteSpace=wrap;html=1;fontFamily=Helvetica;fontSize=12;" parent="WIyWlLk6GJQsqaUBKTNV-1" vertex="1">
          <mxGeometry x="665" y="10" width="30" height="30" as="geometry" />
        </mxCell>
      </root>
    </mxGraphModel>
  </diagram>
</mxfile>
